<svg xmlns="http://www.w3.org/2000/svg" xmlns:xlink="http://www.w3.org/1999/xlink" viewBox="0 0 438.24 135.62"><defs><style>.cls-1{font-size:100px;fill:#fff;font-family:NotoSans-Bold, Noto Sans;font-weight:700;}.cls-2{fill:url(#未命名的渐变_77);}.cls-3{fill:url(#未命名的渐变_77-2);}.cls-4{fill:url(#未命名的渐变_77-3);}.cls-5{fill:url(#未命名的渐变_67);}.cls-6{fill:url(#未命名的渐变_124);}.cls-7{fill:url(#未命名的渐变_77-4);}</style><linearGradient id="未命名的渐变_77" x1="-561.44" y1="4706.33" x2="-561.03" y2="4706.66" gradientTransform="translate(3796.23 -2926.27) rotate(45)" gradientUnits="userSpaceOnUse"><stop offset="0.2" stop-color="#aabdff"/><stop offset="0.31" stop-color="#8fa9ff"/><stop offset="0.54" stop-color="#5880fe"/><stop offset="0.74" stop-color="#3063fe"/><stop offset="0.9" stop-color="#1851fe"/><stop offset="1" stop-color="#0f4afe"/></linearGradient><linearGradient id="未命名的渐变_77-2" x1="-547.6" y1="4702.54" x2="-487.48" y2="4752.99" xlink:href="#未命名的渐变_77"/><linearGradient id="未命名的渐变_77-3" x1="1408.51" y1="7134.11" x2="1452.13" y2="7186.1" gradientTransform="translate(6137.08 4142.05) rotate(135)" xlink:href="#未命名的渐变_77"/><linearGradient id="未命名的渐变_67" x1="11378.77" y1="1436.96" x2="11379.17" y2="1437.3" gradientTransform="translate(7076.67 9176.92) rotate(-135)" gradientUnits="userSpaceOnUse"><stop offset="0.2" stop-color="#244aee"/><stop offset="0.34" stop-color="#244aee" stop-opacity="0.84"/><stop offset="0.56" stop-color="#244aee" stop-opacity="0.61"/><stop offset="0.76" stop-color="#244aee" stop-opacity="0.44"/><stop offset="0.91" stop-color="#244aee" stop-opacity="0.34"/><stop offset="1" stop-color="#244aee" stop-opacity="0.3"/></linearGradient><linearGradient id="未命名的渐变_124" x1="11392.6" y1="1433.18" x2="11452.73" y2="1483.63" gradientTransform="translate(7076.67 9176.92) rotate(-135)" gradientUnits="userSpaceOnUse"><stop offset="0.2" stop-color="#aabdff"/><stop offset="0.26" stop-color="#9ab1ff"/><stop offset="0.52" stop-color="#5e85ff"/><stop offset="0.73" stop-color="#3365fe"/><stop offset="0.9" stop-color="#1951fe"/><stop offset="1" stop-color="#0f4afe"/></linearGradient><linearGradient id="未命名的渐变_77-4" x1="-1860.85" y1="-4806.09" x2="-1817.23" y2="-4754.1" gradientTransform="translate(4735.82 2108.6) rotate(-45)" xlink:href="#未命名的渐变_77"/></defs><title>BHOP_白字_横版</title><g id="图层_2" data-name="图层 2"><g id="P6"><text class="cls-1" transform="translate(152.14 96.71)">BHOP</text><path class="cls-2" d="M71.65,5.12l-.53-.53.09.11Z"/><path class="cls-3" d="M99.5,86.39l8.88-8.92,4.1-4.12,0,0,0,0,.16-.16.47-.5,0,0,.53-.62.13-.17c.18-.22.36-.45.52-.68l0,0c.16-.22.31-.44.46-.66l.12-.19c.15-.23.3-.47.44-.7l0-.05c.13-.22.26-.45.38-.68l.11-.22q.17-.33.32-.66l.06-.14q.15-.34.29-.68l.1-.26q.12-.3.22-.6l.09-.25q.11-.32.2-.64l.09-.31.14-.52.09-.38q.07-.28.12-.57l.07-.36c0-.15.05-.3.07-.44s.05-.36.08-.54,0-.31.06-.47,0-.28,0-.41,0-.25,0-.37,0-.46,0-.69,0-.24,0-.36,0-.31,0-.46,0-.2,0-.3q0-.43,0-.85c0-.08,0-.15,0-.23s0-.33,0-.49l0-.25q-.06-.49-.15-1l0-.11c0-.17-.07-.34-.1-.5l-.05-.23q-.12-.53-.26-1.05v0h0l-.14-.47-.08-.25q-.12-.38-.26-.75l-.11-.28-.17-.42-.15-.35-.26-.56-.19-.39-.17-.33-.34-.62-.15-.25-.3-.49-.15-.23-.45-.64-.14-.19-.43-.56-.1-.12c-.18-.22-.36-.43-.55-.64l-.14-.15c-.2-.22-.4-.43-.6-.64L99,32.5,85.41,18.88,73.34,6.82a37.92,37.92,0,0,1-.89,52.81L59,73.07,70.7,84.75s3.15,3.06,3.54,3.32A19.07,19.07,0,0,0,99,86.9l0,0,.46-.44Z"/><path class="cls-4" d="M46.19,114h0a17.94,17.94,0,0,0,25.89-.24l.23-.23,13.34-13.4L99.19,86.62c-.21.21-.43.42-.64.61a19.08,19.08,0,0,1-26.06-.77c-5.13-5-26.9-26.83-26.9-26.83s-2.24,2.5-3.48,4.22A37.54,37.54,0,0,0,36.25,76,39.81,39.81,0,0,0,36,96.53,38.41,38.41,0,0,0,44,111.79s.52.61.79.88C45.45,113.32,46.19,114,46.19,114Z"/><path class="cls-5" d="M46.46,114.32l.53.53-.09-.11Z"/><path class="cls-6" d="M18.61,33.05,9.73,42l-4.1,4.12,0,0,0,0-.16.16-.47.5,0,0-.53.62-.13.17c-.18.22-.36.45-.52.68l0,0c-.16.22-.31.44-.46.66l-.12.19c-.15.23-.3.47-.44.7l0,.05c-.13.22-.26.45-.38.68l-.11.22q-.17.33-.32.66l-.06.14q-.15.34-.29.68l-.1.26q-.12.3-.22.6L1,53.48q-.11.32-.2.64l-.09.31-.14.52-.09.38q-.07.28-.12.57l-.07.36c0,.15-.05.3-.07.44s-.05.36-.08.54,0,.31-.06.47,0,.28,0,.41,0,.25,0,.37,0,.46,0,.69,0,.24,0,.36,0,.31,0,.46,0,.2,0,.3q0,.43,0,.85c0,.08,0,.15,0,.23s0,.33,0,.49l0,.25q.06.49.15,1l0,.11c0,.17.07.34.1.5l.05.23q.12.53.26,1.05v0h0l.14.47.08.25q.12.38.26.75l.11.28.17.42.15.35.26.56.19.39.17.33.34.62.15.25.3.49.15.23.45.64.14.19.43.56.1.12c.18.22.36.43.55.64l.14.15c.2.22.4.43.6.64L19.15,86.94,32.7,100.56l12.06,12.06a37.92,37.92,0,0,1,.89-52.81L59.09,46.37,47.41,34.69s-3.15-3.06-3.54-3.32a19.07,19.07,0,0,0-24.73,1.17l0,0-.46.44Z"/><path class="cls-7" d="M71.91,5.4h0A17.94,17.94,0,0,0,46,5.64l-.23.23L32.46,19.27,18.92,32.82c.21-.21.43-.42.64-.61A19.08,19.08,0,0,1,45.62,33c5.13,5,26.9,26.83,26.9,26.83s2.24-2.5,3.48-4.22a37.54,37.54,0,0,0,5.85-12.19,39.81,39.81,0,0,0,.26-20.49A38.41,38.41,0,0,0,74.06,7.65s-.52-.61-.79-.88C72.66,6.12,71.91,5.4,71.91,5.4Z"/></g></g></svg>